<svg width="96" height="96" viewBox="0 0 96 96" fill="none" xmlns="http://www.w3.org/2000/svg">
  <rect width="96" height="96" rx="24" fill="#123820"/>
  <path d="M17 67C25 57 34 52 44 52H79C72 62 62 67 48 67H17Z" fill="#F5A832"/>
  <path d="M20 72H76" stroke="#F9E2A7" stroke-width="5" stroke-linecap="round"/>
  <path d="M26 78H68" stroke="#F9E2A7" stroke-width="5" stroke-linecap="round"/>
  <circle cx="55" cy="38" r="17" fill="#F4B23C"/>
  <circle cx="50" cy="34" r="7" fill="#FFD783" opacity=".72"/>
  <path d="M48 47C39 45 32 38 30 29C40 29 47 35 50 43L48 47Z" fill="#8BCB73"/>
  <path d="M52 50C54 35 62 25 77 21C77 35 69 45 55 51L52 50Z" fill="#CFEF83"/>
  <path d="M48 66C48 50 42 41 31 34" stroke="#F7F8F3" stroke-width="5" stroke-linecap="round"/>
  <path d="M49 52C42 49 36 49 29 53" stroke="#F7F8F3" stroke-width="5" stroke-linecap="round"/>
  <path d="M51 45C55 38 62 33 72 31" stroke="#F7F8F3" stroke-width="5" stroke-linecap="round"/>
</svg>
